<?xml version="1.0" encoding="utf-8"?>
<!-- Generator: Adobe Illustrator 19.0.0, SVG Export Plug-In . SVG Version: 6.00 Build 0)  -->
<svg version="1.1" id="Capa_1" xmlns="http://www.w3.org/2000/svg" xmlns:xlink="http://www.w3.org/1999/xlink" x="0px" y="0px"
	 viewBox="0 0 566 222" style="enable-background:new 0 0 566 222;" xml:space="preserve">
<style type="text/css">
	.st0{fill-rule:evenodd;clip-rule:evenodd;fill:#FFFFFF;}
</style>
<g id="XMLID_1_">
	<path id="XMLID_106_" class="st0" d="M134.1,153.7c3,13.5,13.7,22.1,25.5,23.7c4.5,0.6,9.2,0.1,13.9-1.7c4.1-1.5,7.7-3.9,10.9-6.9
		c2-1.9,2.3-4.5,0.9-6.6c-1.9-3-5.5-3.8-8.4-2c-1.7,1.8-3.5,3.1-5.6,4c-2.3,1-4.9,1.5-7.7,1.6c-0.7,0-1.5,0-2.3-0.1
		c-7.5-0.8-14.8-6.6-16.2-15c-0.1-0.8-0.2-1.7-0.3-2.6c0-2.2,0.2-4.2,0.7-6.1c0.5-1.7,1.2-3.3,2.2-4.8c1.5-2.3,3.6-4.3,6.3-5.9
		c0.6-0.4,1.2-0.7,1.9-1c3.3-1.6,6.8-2.1,10.2-1.6c2.2,0.4,4.4,1.2,6.5,2.5c2,1.2,3.7,3.1,5.4,4.8c0.1,0.1,0.1,0.1,0.2,0.2
		c2.4,2.4,5.9,2.7,8.4,0.5c2.4-2,2.6-5.2,0.4-7.9c-2.3-2.8-4.7-5.1-7.4-6.8c-4.7-3.1-10-4.7-15.9-4.6c-1.6,0-3.1,0.2-4.8,0.4
		c-12.1,1.8-21.5,10.6-24.5,21.8c-0.8,2.8-1.2,5.8-1.1,8.8c0,0.2,0.1,0.5,0.1,0.7C133.6,150.6,133.8,152.1,134.1,153.7z"/>
	<path id="XMLID_107_" class="st0" d="M243.6,119.5l4,10.7c3.2-1.5,6.5-2,9.8-1.4c2.2,0.4,4.4,1.2,6.5,2.5c2,1.2,3.7,3.1,5.4,4.8
		c0.1,0.1,0.1,0.1,0.2,0.2c2.4,2.4,5.8,2.7,8.4,0.5c2.4-2,2.5-5.2,0.3-7.9c-2.2-2.8-4.7-5.1-7.4-6.8c-4.7-3.1-10-4.7-15.9-4.6
		c-1.6,0-3.2,0.2-4.8,0.4C248,118.1,245.7,118.7,243.6,119.5z"/>
	<path id="XMLID_122_" class="st0" d="M239.1,137.2c0.8-1.2,1.8-2.4,3-3.4l-0.3-0.4c-0.1-0.1-0.1-0.2-0.2-0.4l0-0.1l-3.8-10.3
		c-5.8,4-10.1,10-12,16.9c-0.8,2.8-1.2,5.8-1.1,8.8c0,0.2,0.1,0.5,0.1,0.7c0.2,1.6,0.3,3.1,0.7,4.7c3,13.5,13.7,22.1,25.5,23.7
		c4.5,0.6,9.2,0.1,13.9-1.7c4.1-1.5,7.7-3.9,10.9-6.9c2-1.9,2.3-4.5,0.9-6.6c-1.9-3-5.5-3.8-8.4-2c-1.6,1.8-3.5,3.1-5.6,4
		c-2.3,1-4.9,1.5-7.7,1.6c-0.8,0-1.5,0-2.3-0.1c-7.6-0.8-14.8-6.6-16.2-15c-0.1-0.8-0.2-1.7-0.3-2.6c-0.1-2.2,0.2-4.2,0.7-6.1
		C237.4,140.3,238.1,138.7,239.1,137.2z"/>
	<path id="XMLID_125_" class="st0" d="M44.4,177.1c6.6-1.4,12.2-4.7,16.7-9.6c2.2-2.4,2.1-6.2-0.3-8.4c-2.3-2.2-5.9-2.1-8.2,0.3
		c-0.4,0.4-0.7,0.8-1.1,1.2c-5.4,5.5-14.5,7.5-21.9,3.4c0.5-0.5,0.9-0.9,1.3-1.2c9.9-8.3,19.7-16.6,29.5-24.8
		c2.9-2.4,3.3-5.8,0.9-8.7c-1.5-1.9-3.2-3.7-5.1-5.2c-7.5-5.8-16.1-7.1-25.3-5.2c-6.7,1.4-11.9,5.1-16.1,10.5
		c-7.4,9.5-8.8,19.7-4,30.6C16.5,172.8,30.6,180,44.4,177.1z M26.6,133.7c6.4-5.2,15.9-5.6,21.8-0.8c-8.8,7.4-17.7,14.9-26.6,22.4
		C18.2,148.3,19.6,139.4,26.6,133.7z"/>
	<path id="XMLID_126_" class="st0" d="M68.6,172.3c0.2,2.9,2.8,5.3,5.6,5.3c2.9,0,5.2-2,5.6-5c0.1-0.7,0.1-1.5,0.2-2.3
		c0.1-7.2,0.2-14.3,0.3-21.5c0-2,0.1-4,0.5-5.9c1.7-8.4,9.2-14.5,17.8-14.5c9.8,0.1,16.6,6.5,18,14.4c0.5,2.7,0.4,5.6,0.5,8.4
		c0.1,6.6,0,13.3,0.1,19.9c0,3.5,2.8,6.1,6.2,6c3.1-0.1,5.7-2.6,5.7-5.9c0-8.7,0.2-17.4-0.1-26c-0.2-7-2.8-13.2-7.6-18.4
		c-6.8-7.2-15.2-10.3-25.1-9.7c-15.2,1-27.1,13.1-27.7,28.2c-0.2,4.2,0,8.4,0,12.6c0,0,0,0-0.1,0c0,3,0,5.9,0,8.9
		C68.5,168.7,68.4,170.5,68.6,172.3z"/>
	<path id="XMLID_127_" class="st0" d="M290.9,178.8c2.9,0.1,5.5-2.2,5.9-5.2c0.1-0.9,0.1-1.8,0.1-2.7c0-11,0-21.9,0-32.9
		c0-10.9,0-21.8,0-32.7c0-0.9-0.1-1.8-0.1-2.7c-0.1-2.8-2.6-5.4-6-5.4c-3.5,0.1-5.6,2.3-5.7,5.8c0,0.5,0,0.9,0,1.4
		c0,22.4,0,44.8,0,67.2c0,0.5,0,1.1,0,1.6C285.3,176.3,287.7,178.6,290.9,178.8z"/>
	<path id="XMLID_130_" class="st0" d="M306.2,162.9c5.3,9.1,15,14.8,25.2,15.1v0h26.1c0.1,0,0.2,0,0.2,0h0c3.2-0.2,5.3-2.5,5.2-6.1
		c0-0.1,0-0.2,0-0.4h0v-4h0c0-7.2,0.1-14.4-0.1-21.6c-0.1-2.8-0.7-5.8-1.7-8.4c-2.6-7.3-7.8-13-14.3-16.4c-5.9-3.1-12.8-4.3-19.8-3
		c-17.3,3.2-28.5,19.8-24.1,37.1C303.7,158,304.8,160.5,306.2,162.9z M332.5,129.1c10.4,0,18.1,8,18.5,17.5c0,0.4,0,0.8,0,1.2
		c0,0.1,0,0.2,0,0.4c0,2.6,0,5.3,0,7.9h0v4h0c0,0.1,0,0.2,0,0.4c0,3.5-2.1,5.9-5.2,6.1h0c-0.1,0-0.2,0-0.3,0h-11.8h-2.4
		c-9.5-0.6-17.1-8.5-17.2-19.1C314.2,136.7,322.5,129.1,332.5,129.1z"/>
	<path id="XMLID_131_" class="st0" d="M197.2,140l-2.7,0c-14.3-0.1-29.2-0.3-29.4-0.3c-4.3,0-7.8,3.5-7.8,7.8c0,4.3,3.5,7.6,7.8,7.8
		c3.6,0.1,19.3,2.4,30.4,4l0.2-1.6l2.4-17.7C197.8,140,197.5,140,197.2,140z"/>
	<path id="XMLID_132_" class="st0" d="M225.7,91.8l4.5-1.4c0.2-0.1,1-0.2,1.7,1.1c0.4,0.7,1.1,2.5,2,4.5c-1.3,0.7-2.1,1.6-2.5,2.7
		c-0.5,1.5,0,2.8,0.2,3.2l2.6,6.9l-20.1,28.9l-2.1,15.5l8.5-12.9l16.4-24.3l6.6,16.3l0.1,0.1l7.9,12.9c-0.5,0.5-0.8,1.3-0.8,2.1
		c0,1.7,1.4,3.1,3.1,3.1c1.7,0,3.1-1.4,3.1-3.1c0-1.6-1.3-3-2.9-3l-8-13.1L234,100.9l0-0.1c0,0-0.3-0.6-0.1-1.3
		c0.1-0.4,0.5-0.8,1-1.1c1.6,3.8,3.1,7.8,3.1,7.9c0,0,1.5,2.8,5.3,2.5c2.9-0.2,10.3-0.9,10.6-1L253,85.1c0,0-6.1,0.4-12.8,1.3
		c-6.3,0.8-5.2,5.6-5,6.2c-0.4-1-0.8-1.8-1-2.2c-1.4-2.7-3.8-2.7-4.8-2.3l-4,1.3c0.2,0.5,0.3,1,0.3,1.5
		C225.8,91.1,225.8,91.5,225.7,91.8z"/>
	<path id="XMLID_133_" class="st0" d="M189.6,68.5c0.3,0,0.5,0,0.8,0c5.6-0.4,9.7-5.3,9.3-10.9c-0.4-5.3-4.9-9.3-10.1-9.3
		c-0.3,0-0.5,0-0.8,0c-5.6,0.4-9.7,5.3-9.3,10.9C179.9,64.4,184.3,68.5,189.6,68.5z"/>
	<path id="XMLID_134_" class="st0" d="M174.9,115.5l0.7,0.4l26.1,12.8l-4,29.3c0,0.4-0.1,0.8,0,1.2c0.2,3,2.8,5.3,5.7,5.3
		c0.2,0,0.3,0,0.4,0c3-0.2,5-2.5,5.3-5.8l4.5-33.6l0.1-0.6c0-0.3,0-0.6,0-0.9c-0.2-2-1.4-3.8-3.1-4.6l-0.4-0.2l-22.2-11l4-23.5
		l24.6,11.3c0.1,0.1,0.2,0.1,0.4,0.2l0.1,0v0c0.5,0.2,1.1,0.3,1.7,0.3c0.1,0,0.3,0,0.4,0c2.6-0.2,4.6-2.5,4.4-5.1
		c-0.1-2-1.5-3.4-3.2-4.1l-33.7-15.9l-0.9-0.4c-0.6-0.2-1.3-0.4-2-0.4c-0.1,0-0.3,0-0.4,0c-2.5,0.2-4.5,2-5.1,4.3l-0.2,0.9l-6,33.9
		l-0.1,0.8c0,0.3-0.1,0.7,0,1.1C172.3,113,173.4,114.6,174.9,115.5z"/>
	<polygon id="XMLID_135_" class="st0" points="470,31 470.3,30.8 470,30.7 469.3,30.7 	"/>
	<path id="XMLID_136_" class="st0" d="M458.7,152.3c0.5-0.6,0.7-1.2,0.7-3.8c0-2.6-0.2-3.3-0.7-3.9c-0.4-0.5-1-0.7-1.7-0.7
		c-0.7,0-1.3,0.3-1.7,0.7c-0.5,0.6-0.7,1.2-0.7,3.9c0,2.6,0.1,3.3,0.7,3.8c0.4,0.4,1,0.7,1.7,0.7
		C457.7,153.1,458.3,152.8,458.7,152.3z"/>
	<path id="XMLID_137_" class="st0" d="M471.3,145.9c0-1.1-0.8-1.9-2-1.9h-2.5v3.8h2.5C470.5,147.8,471.3,147,471.3,145.9z"/>
	<path id="XMLID_138_" class="st0" d="M445.7,144h-2.5v3.6h2.5c1.2,0,1.9-0.8,1.9-1.8C447.6,144.7,446.8,144,445.7,144z"/>
	<path id="XMLID_139_" class="st0" d="M460.8,164.6c-1.8,0-2.1,1.5-2.1,3.3c0,1.8,0.3,3.3,2.1,3.3c1.8,0,2.1-1.5,2.1-3.3
		C462.9,166.1,462.6,164.6,460.8,164.6z"/>
	<path id="XMLID_140_" class="st0" d="M444.4,164.4c-0.9,0-1.7,0.5-2,1.3c-0.2,0.4-0.2,0.7-0.3,1.4h4.5c0-0.6-0.1-0.9-0.3-1.4
		C446,165,445.3,164.4,444.4,164.4z"/>
	<path id="XMLID_143_" class="st0" d="M557.6,92.9l0,0.7l0-0.1l-0.1,0l0,0.1l0.1,0.1l-0.2,0.9h-0.1l-0.2,0l-0.6,0.3l-0.2,0.3
		l-0.1,0.3l-0.7-0.3l-0.2-0.1l0-0.5l-0.2-0.2l-0.6,0.4l-0.2,0.3l-0.2,0.3l-0.1,0l-0.1,0l0-0.2l-0.2-0.3l-0.3-0.1l-0.2,0.4l-0.1,0.6
		l-0.1,0l-0.9-0.3l-0.4,0.4l-0.3,0.2l-1.5,0.6l-0.2,0.1l-0.7,0.7l-0.1-0.3l-0.4-0.2l-0.4,0.5l-0.1,0.6l-0.6-0.1l-0.5,0.2l-0.1,0.4
		l-0.6-0.3l-0.2-0.7l0-0.3l-0.1-0.3l-0.5,0.8l-0.1,0.4l-0.1,0.4l-0.4-0.2l0-0.1l-0.8,0.2l-0.1,0.5l-0.9,0l-0.6,0.4l-1,0.1l-1.1,0.2
		l-0.9,0.7l-2,0.7l-1.4,0.1l-1.4,1.2l-1.9-0.4l-1.7,0.2l-1.1,0.5l-1,0.2l-0.8,0.5l-1.5,0.3l-0.9,0.2l-3.2,1.5l-3.8-0.8l-0.3-0.4
		l-0.2,0.2l-0.1,0l0-0.2l0.2-0.1l-0.7-0.3l-0.9-0.2l-0.3,0.6l-0.3,0.3l-0.3,0.4l-0.4,0.6l-0.5,0.3l-0.5,0.4l-0.5,0.4l-0.2,0.5
		l-0.5,0.1l-0.7,0.8l-0.6,0.4l-0.4-0.1l-0.3,0l-0.1,0l-0.1,0.4l-0.9-0.2l-0.4,0.3l-0.1,0.3l-1.8-0.7l-1.9-0.8l-0.6-0.6l-0.6-0.6
		l-0.3-0.3l-0.6,0.1L503,107l-0.5,0.6l-0.6,0.3l-0.8,0.6l0,0.1l0.1,0l-1,0.4l-1,0.7l-1.6,0.6l-1.5,1l-1.3,0.3l-1.3,0.3l-1.6,0.7
		l-1.6,0.6l-1,0.4l-1.1-0.1l-0.2,0l-1.5,0.4l-1.7-0.4l-0.6-0.7l-1-0.4l-1.3,1l-1.3,1l-0.4,0.6l-0.7,0.2l-2.1,1.2l-1.9,1.4l-0.6,0.3
		l-0.1,0.3l-0.9-0.2l-0.6,0.2l-0.1,0.3l-1.7-0.4l-0.9-0.9l-1.4-0.6l-0.9-0.7l-0.2-1.7l0-1.7l-0.2-0.6l0-0.3l0-0.3l0.3-0.1l0-0.2
		l0-0.3l0.3,0l0-0.3l0-0.2l0.1,0l0.2-0.7l0.2-0.3l0.1-0.3l0.2,0l0.2-0.3l-0.3-0.4l0.2-0.1l0.2-0.2l-0.1-1.3l0.3-1.4l1-1.5l0.3-1.5
		l-0.3-0.3l-0.5-0.1l-1.1,0.7l-0.9,0.7l-0.8,1.3l-0.8,1.1l-1,1.3l-0.6,1.2l-0.9,1.3l-0.8,0.9l-0.1,0.3l-0.9,0.9l-0.2,1.2l-0.8,0.4
		l-0.7,0.6l-0.4,1l-0.9,0.5l-0.2,0.3l-0.4,0.1l-0.7,0.9l-0.6,1l-0.9,0.4l-0.6,0.9l-1.1,0.5l-0.8,0.9l-1.3,0.4l-0.5,0.3l-1.2,0.4
		l-0.9,0.2l-1.6,0.7l-2.3,0.7l-1.2,0.2l-0.5,0.2l0.1-0.2l-0.1,0.1l-0.4-0.2l-1.2,0l-0.6-0.9l-0.1-1.1l0.3-1.9l0-1.2l0.4-0.9l0.3-0.8
		l0.1-1.8l0.3-0.6l0.6-1.8l0.1-1.8l0.7-1.6v-1.8l0.7-1.3v-0.2l-0.2-0.2v0.2h-0.4V106l0.5-1.3l0.7-1v-1.6l0.4-1.3l0.3-1.2l0.2-1.2
		l0.8-1.5v-1.8l0.5-1.1v-1.6l0.5-0.3l0.2-0.7v-1.8l0.3-0.2l0.2-0.4l0.1-1.6l0.8-1.3v-2l0.3,0.2l0.2-0.2l-0.2-0.5l0.3-1.3l0.6-1
		l0.3-2.4l0.4-2.3l0.7-1.2l0.2-1.6h0.4l0.3-2.2l0.5-1.3V69l0.7-1.3l0.5-1.4l0.2-1.6l-0.3-1.2l-0.6,0.5v1.1l-0.9,0.3l-0.5,0.7
		l-0.4,1.1l-0.4,0.7l-0.7,0.8l-0.5,0.7l-0.6,1.1l-0.5,1l-0.7,0.9l-0.6,1.1l-0.7,0.5l-0.6,0.5l-0.9,1.4l-0.7,1.8h-0.4l-0.2,0.3v0.4
		l-0.9,0.7l-0.5,1.1v0.4l-0.7,0.8l-0.8,0.9v0.4v0.3l-0.7,0.2l-0.2,0.7l0.2,0.2l-0.7,0.7l-0.7,1.1l-0.4,0.8l-0.5,0.5l-0.6,0.5
		l-0.2,0.9h0.2l-0.6,0.2l-0.3,0.3l-0.9,1l-0.4,0.5l-0.9,1.6h0l-0.8,0.8l-0.1,0.1l-0.5,1.2l-0.1,0.3L435,95l-0.1,0.1l-0.4,0.5
		l0.2,0.3l-0.2,0.4l-0.5,0.4l-0.2,0.5l-1.1,0.9l-0.9,0.7l-0.2,0.9l-0.5,0.3l-0.2,0.9v0.8l1.1,0.1l1.1-0.5l-0.2-0.2h1.6l0.4-0.3
		l0.7-0.4l0.1-0.1l0.4,0.3l0.6,0.4h0.2h0.7l0.3,0.2l0.3,0.2l0.1,0.1l-0.1-0.6l0-0.3l0-0.1l0.3-0.8v0.5l0.2,0.5l0.4,0.1h0.3l0.2-0.9
		l0.7-0.2v0.2h-0.2l0.2,0.2h0.4l-0.2,2.1l-0.6,0.5l-0.6,0.2l-0.2,0.3v0.4l0.5,0.2l0.2,0.3h-1.7h-0.4l-0.9,0.6l-0.7,0.5l-0.1,0.2
		l-0.1,0.3l-0.4,0.5h-0.1h-0.4v-0.2L435,106l-0.1,0.1l-0.4,0.3l-0.5,0.2l-0.4,0.7l-0.2-0.2h-0.4v-0.7l-0.4-0.4l-0.5,0.5l-0.5,0.6
		l-1.1,0.2L430,108l-0.2-0.2l-0.2-0.2l-0.6-0.2l-0.5,1.4l-0.7,0.3l-0.4-0.1l-1.3,0.4l-0.7,0.5l0.1,0.3l-1,0.2h0l-2.9,1.1l-0.1,0.6
		l-0.2,0.7l-0.3,0.1l-0.3,0.1l-0.1-0.3l-0.7-0.2l-0.5,0.2l0,0.9l0.4,1l-0.2,0.1l-2,0.6l-0.3,1l-0.2,0.7l-2.1,2.8l-0.3,0.4l-0.6,1.9
		l-0.5-0.4l-0.9,0.1l-0.1,1.3l0.4,1l-1.3,0.5l-0.6,0.9l0.3,0.8l-1.4,0.3l-1-0.9l-0.2-0.5l-0.5-0.4l-0.2,1.9l0.6,1.6l-0.9,0.1
		l-0.8-0.3l-1.2,1.4l-0.6,1.5l-2.3,1.2l0.3,0.8l-1.3,0.8l-0.5,1.1l-1.2,1l-1.2,1.2l-0.6,1.7l-2,2.8l-1.8,1.5l-0.8,2.9l-2.9,1.2
		l-3.6,2.6l-1.2,0l0-4.2v33.9h171.1V92.9z M419.2,141.6h9v2.4h-6.4v3.2h5.4v2.4h-5.4v3.3h6.4v2.4h-9V141.6z M404.3,141.6h2.6
		l3.6,7.4l3.6-7.4h2.6v13.7H414v-8l-2.6,5.2h-1.8l-2.6-5.2v8h-2.7V141.6z M410.6,172.8h-1.7l-4.6-14h2.2l3.2,10.2l3.2-10.2h2.2
		L410.6,172.8z M424.1,172.8h-2v-0.9c-0.7,0.7-1.4,1-2.6,1c-1.2,0-2.1-0.3-2.7-0.9c-0.5-0.5-0.8-1.3-0.8-2.1c0-1.7,1.2-2.9,3.4-2.9
		h2.6v-0.7c0-1.3-0.6-1.9-2.2-1.9c-1.1,0-1.6,0.3-2.2,1l-1.3-1.2c0.9-1.1,1.9-1.4,3.6-1.4c2.7,0,4.1,1.2,4.1,3.4V172.8z
		 M431.6,172.8h-1.2c-1.9,0-2.7-1.3-2.7-2.7v-11.2h2V170c0,0.8,0.3,1.2,1.1,1.2h0.9V172.8z M438.4,172.8h-1.2
		c-1.9,0-2.7-1.3-2.7-2.7v-11.2h2V170c0,0.8,0.3,1.2,1.1,1.2h0.9V172.8z M439,144h-3.6v11.3h-2.7V144h-3.6v-2.4h9.8V144z
		 M448.6,168.4h-6.5c0,1.7,0.9,2.8,2.5,2.8c1.1,0,1.7-0.3,2.4-1l1.3,1.2c-1,1-2,1.5-3.7,1.5c-2.5,0-4.5-1.3-4.5-5.1
		c0-3.2,1.7-5.1,4.2-5.1c2.7,0,4.2,2,4.2,4.8V168.4z M447.7,155.3l-2.7-5.5h-1.9v5.5h-2.7v-13.7h5.4c2.8,0,4.4,1.9,4.4,4.2
		c0,1.9-1.2,3.1-2.5,3.6l3.1,5.9H447.7z M528,129L528,129l0.2,0.1H528h-0.2L528,129z M523.5,141.6h2.4l5.4,8.4v-8.4h2.7v13.7h-2.4
		l-5.4-8.4v8.4h-2.7V141.6z M451.9,148.5c0-2.4,0-4.1,1.4-5.5c1-1,2.2-1.5,3.7-1.5c1.6,0,2.7,0.5,3.7,1.5c1.4,1.4,1.4,3.1,1.4,5.5
		c0,2.4,0,4.1-1.4,5.5c-1,1-2.1,1.5-3.7,1.5c-1.6,0-2.8-0.5-3.7-1.5C451.9,152.5,451.9,150.8,451.9,148.5z M464.9,172.8h-2v-1.1
		c-0.7,0.9-1.6,1.2-2.6,1.2c-1,0-1.9-0.3-2.4-0.9c-1-1-1.1-2.7-1.1-4.2c0-1.5,0.1-3.2,1.1-4.2c0.6-0.6,1.4-0.9,2.4-0.9
		c1.1,0,1.9,0.3,2.6,1.1v-5h2V172.8z M466.8,155.3h-2.7v-13.7h5.3c2.8,0,4.5,1.9,4.5,4.3c0,2.3-1.7,4.3-4.5,4.3h-2.6V155.3z
		 M476.6,168.4h-6.5c0,1.7,0.9,2.8,2.5,2.8c1.1,0,1.7-0.3,2.4-1l1.3,1.2c-1,1-2,1.5-3.7,1.5c-2.5,0-4.5-1.3-4.5-5.1
		c0-3.2,1.7-5.1,4.2-5.1c2.7,0,4.2,2,4.2,4.8V168.4z M476.4,153.9c-1.4-1.4-1.4-3.1-1.4-5.5c0-2.4,0-4.1,1.4-5.5
		c1-1,2.2-1.5,3.7-1.5c1.6,0,2.7,0.5,3.7,1.5c1.4,1.4,1.4,3.1,1.4,5.5c0,2.4,0,4.1-1.4,5.5c-1,1-2.1,1.5-3.7,1.5
		C478.6,155.4,477.4,154.9,476.4,153.9z M493.4,172.8l-1-2.8h-5.5l-1,2.8h-2.3l5.1-14h1.7l5.1,14H493.4z M496.1,155.3h-8.9v-13.7
		h2.7v11.3h6.2V155.3z M497.6,141.6h2.7v13.7h-2.7V141.6z M505.1,172.1c-0.5,0.6-1.4,0.9-2.4,0.9c-1.1,0-1.9-0.3-2.6-1.2v1.1h-2v-14
		h2v5c0.7-0.9,1.6-1.1,2.6-1.1c1,0,1.9,0.3,2.4,0.9c1,1,1.1,2.7,1.1,4.2C506.2,169.4,506.1,171.1,505.1,172.1z M508,155.3h-2.7V144
		h-3.6v-2.4h9.8v2.4H508V155.3z M517.5,172.8h-2v-1c-0.7,0.7-1.7,1.1-2.7,1.1c-1,0-1.9-0.3-2.5-0.9c-0.8-0.7-1-1.7-1-2.8v-6.4h2v6.1
		c0,1.5,0.9,2.2,2,2.2c1.1,0,2.1-0.7,2.1-2.2v-6.1h2V172.8z M518.9,152.9H514l-0.8,2.4h-2.8l5-13.7h2.1l5,13.7h-2.8L518.9,152.9z
		 M526.7,165.2c-0.5-0.4-0.8-0.7-1.5-0.7c-1.1,0-2,0.9-2,2.2v6.1h-2v-10h2v1.1c0.5-0.7,1.5-1.2,2.7-1.2c1,0,1.7,0.3,2.4,0.9
		L526.7,165.2z M535.9,165.2c-0.4-0.4-0.8-0.7-1.5-0.7c-1.1,0-2,0.9-2,2.2v6.1h-2v-10h2v1.1c0.5-0.7,1.5-1.2,2.7-1.2
		c1,0,1.7,0.3,2.4,0.9L535.9,165.2z M546.8,172.8h-2v-0.9c-0.7,0.7-1.4,1-2.7,1c-1.2,0-2.1-0.3-2.7-0.9c-0.5-0.5-0.8-1.3-0.8-2.1
		c0-1.7,1.2-2.9,3.4-2.9h2.6v-0.7c0-1.3-0.6-1.9-2.2-1.9c-1.1,0-1.6,0.3-2.2,1l-1.3-1.2c0.9-1.1,1.9-1.4,3.6-1.4
		c2.7,0,4.1,1.2,4.1,3.4V172.8z M541.9,161.1l1.5-3.2h2.2l-2.2,3.2H541.9z M544.3,155.3l-0.8-2.4h-4.9l-0.8,2.4H535l5-13.7h2.1
		l5,13.7H544.3z"/>
	<path id="XMLID_171_" class="st0" d="M417.9,169.9c0,0.9,0.6,1.4,1.8,1.4c0.8,0,1.3-0.1,1.9-0.6c0.3-0.3,0.4-0.8,0.4-1.5v-0.8h-2.3
		C418.6,168.4,417.9,169,417.9,169.9z"/>
	<polygon id="XMLID_172_" class="st0" points="470.5,29.7 470.3,29.6 470.2,29.7 470.2,29.7 470.3,29.9 	"/>
	<polygon id="XMLID_173_" class="st0" points="539.4,150.6 542.8,150.6 541.1,145.7 	"/>
	<path id="XMLID_174_" class="st0" d="M540.6,169.9c0,0.9,0.6,1.4,1.8,1.4c0.8,0,1.3-0.1,1.9-0.6c0.3-0.3,0.4-0.8,0.4-1.5v-0.8h-2.3
		C541.2,168.4,540.6,169,540.6,169.9z"/>
	<polygon id="XMLID_175_" class="st0" points="386.5,143.5 386.5,145.8 387.1,143.1 	"/>
	<polygon id="XMLID_176_" class="st0" points="487.6,168.2 491.8,168.2 489.7,162 	"/>
	<polygon id="XMLID_177_" class="st0" points="514.8,150.6 518.2,150.6 516.5,145.7 	"/>
	<path id="XMLID_178_" class="st0" d="M480.1,143.9c-0.7,0-1.4,0.3-1.7,0.7c-0.5,0.6-0.7,1.2-0.7,3.9c0,2.6,0.1,3.3,0.7,3.8
		c0.4,0.4,1,0.7,1.7,0.7s1.3-0.3,1.7-0.7c0.5-0.6,0.7-1.2,0.7-3.8c0-2.6-0.1-3.3-0.7-3.9C481.5,144.2,480.9,143.9,480.1,143.9z"/>
	<path id="XMLID_179_" class="st0" d="M502.1,164.6c-1.8,0-2.1,1.5-2.1,3.3c0,1.8,0.3,3.3,2.1,3.3c1.8,0,2.1-1.5,2.1-3.3
		C504.2,166.1,503.9,164.6,502.1,164.6z"/>
	<path id="XMLID_180_" class="st0" d="M472.3,164.4c-0.9,0-1.7,0.5-2,1.3c-0.2,0.4-0.2,0.7-0.3,1.4h4.5c0-0.6-0.1-0.9-0.3-1.4
		C474,165,473.3,164.4,472.3,164.4z"/>
	<polygon id="XMLID_181_" class="st0" points="429.6,101.4 429.8,101.5 430,101.6 430,101 429.8,101 429.6,101 	"/>
	<polygon id="XMLID_182_" class="st0" points="553.8,94.5 553.8,94.8 553.9,94.9 554,94.9 554.1,94.8 553.9,94.7 553.9,94.7 	"/>
	<polygon id="XMLID_183_" class="st0" points="554.7,92.2 554.4,92.4 554.3,92.3 554.2,92.2 554.3,92.5 554.4,92.7 554.6,92.8 
		555,92.8 555.1,92.7 555.2,92.2 554.8,92.2 	"/>
	<polygon id="XMLID_184_" class="st0" points="555.6,93.4 555.8,93.4 555.9,93.5 556.1,93.3 556.1,93.1 555.9,93.1 555.8,93.1 	"/>
	<polygon id="XMLID_185_" class="st0" points="412.7,115.2 413.5,116.1 413.5,116 413.6,115.7 413.9,115.6 413.4,115.2 413.2,115.2 
			"/>
	<polygon id="XMLID_186_" class="st0" points="549.9,94.1 550,94.7 550,94.6 550.1,94.5 550.3,94.6 550.2,94.3 550.1,94.2 	"/>
	<polygon id="XMLID_187_" class="st0" points="553.4,91.9 553.4,92.4 553.4,92.4 553.5,92.4 553.5,92.1 553.5,92 	"/>
	<polygon id="XMLID_188_" class="st0" points="514.1,94.8 512.9,96.3 512.2,97.3 511.2,98.4 510.2,100.1 509.8,101.9 509.8,102.7 
		510.4,103.1 510.7,103.1 510.9,103.4 511.5,103.2 512.2,102.8 512.2,102.8 512.8,101.7 514.1,101.2 514.2,100.3 514.7,99.7 
		514.9,99.4 515.1,99.2 515.7,98.7 516.8,96.9 516.7,94.8 516,93.2 	"/>
	<polygon id="XMLID_189_" class="st0" points="472.2,30.4 471.9,30.2 471.7,30.4 472,30.5 	"/>
	<path id="XMLID_192_" class="st0" d="M389,141.2l0.9-1.6l2.1-2.2l1.7-2.2l0.9-1.8l1.6-1.4l0.8-1l1-1.3l1.2-2.5l2.4-1.6l0.2-1.1
		l0.6-0.9l1.3-1.4l1.4-1.8l0.7-1.3l1-0.4l-0.2,0.4l0.1,0.2l0.4,0.2l0.9-1.7l0.6,0.7l0.9,0l0.3-0.8l-0.5-0.4l-0.4-0.1l-0.8,0.3
		l0.2-1.1l0.3-0.1l-0.3,0l-3.8,1.5h-0.4l-0.2,0.3l-0.9-0.2l-0.5-0.9h-0.4h-0.4l-0.4,0.4l0.4,0.4l-0.9,0.2h-1.1l-0.9-1.6l-0.6-1.8
		l-1.2-0.7l0.2-1.7l3-3l2.3-0.2l5.2-1.5l2.7-0.2l2.5-0.7l1.3-0.3l1.4-0.9h1.3l0.1-0.4l0.3-0.7l0.2-0.4l0.7,0.9l0.1,0.1l0.1-0.1
		l1.6-0.3l-0.8-0.6l0.7-1l0.3-0.7l0.8-0.3l0.1-0.8l0.2,0.2l0.3-0.7l0.2-0.5l1.1-1.4l1.4-1.1l0.3-0.6v-0.9l0.5-0.4l1.9-1.2l-0.3-0.2
		l1.1-1.1l0.7-1.1l0.4-0.5l0.2-0.9l0.2-0.2l0.9-0.6l0.9-1.1l0.9-1.3l1-1l0.4-0.4l-0.4-0.2l0.2-0.3h0.2l0.9-0.7l-0.2-1.4l0.1-0.1
		l0.6-0.5L435,83l0.5-0.9l0.1-0.1l0.6-0.5l0.2-0.8l0-0.1l0.5-0.4l0.3-0.4l0.4-0.7l0.5-0.8l0.7-1.2l0.2-0.4h0.3l0.2-0.1v-0.6l0.7-0.9
		v-0.6l0.5-0.2v-0.5l2.3-2.5l1.6-3.1l0.7-0.5l0.5-0.7l0.9-1.4l0.8-1.6l0.9-0.9l0.4-1.3l1.7-0.4l0.4-1.3l0.1-1l0.5-0.7l0.5-1.1
		l0.4-0.9l0.5-0.5l0.2-0.7l0.4,0.2l0.5-1.3l0.9-1.1l0.7-1l1.3-0.6l-0.2-0.4l0.4-0.2l0.2-0.6l0.9-0.9l0.4-1.1l0.5-0.4l-0.5-0.9
		l0.9-0.5l0.5-1.3l0.5-1.3l0.9-1.1l0.7-1.1l0.4-1.6l1.1-1.1l0.9-1.4l0.1-0.9l0.4-1.3l1.3-0.7l1.3,0.5h1.4v1.5l0.9,0.7v0.6l0.4,0.2
		l-0.5,3.6l-0.7,3.9l-0.5,0.4l-0.2,0.7v1l-0.7,0.4l-0.2,1.1l0.2,0.6h-0.4l-0.4,0.5v1.1l-0.5,0.7V55l-0.7,1.2l-0.9,1.3l-0.1,1.1
		l-0.6,1.1v1.8l-0.7,1.2v2l-0.7,1.1l-0.5,1.1l-0.2,0.7v1.3l-0.8,1.6v2.3l-0.5,0.9l-0.4,1.3l-0.5,1.4l-0.7,1.6l0.2,1.6l-0.5,1.3
		l-0.2,1.4l-0.5,1.4h-0.2l-0.5,2.3l-0.4,2.5l-0.4,0.2l-0.3,0.3l0.2,1.8l-0.5,1.5l-0.4,0.9l0.2,0.9l-0.7,0.4v0.7v1.1l-0.6,0.5
		l-0.2,2.2l-0.7,1.6v1.4l-0.7,0.9l-0.2,0.9v0.9h-0.2l-0.2,0.2l0.3,0.2L452,106l-0.2,1.3l-0.7,2.1l-0.1,1.4l-1.4,5.1l0.2-0.1l0.4-0.4
		l0.8-0.2l0.6-0.3l0.6-1.2l0.3,0.3l0.3-0.8l0.7-0.5l0.8-0.5l0.6-1.1l1.2-1.2l1.3-1l0.2-0.7l0.5,0l0.2-0.1l0.1-0.4l0.8-0.2l0.2-0.9
		l0.5,0.3l0.6-1.2l0.8-1.1l0.3-1.4l0.9-0.9L463,99l1.3-2.6l0.5-0.8l1-0.5l1.9,0.5l0.4,0.7l0.8,0.3l1.1-1.1l1.5-0.1l0.2-0.1l0.1-0.4
		l2.1-0.1l1.8,0l0.9,0.7l0.5,1l0.4,0.7l0.5,0.4l-0.5,2.3v1.6l-1,1.5l-0.1,1.1l-0.8,1.5l-0.3,2.3l-0.6,0.1l-0.2,0.3l-0.7,2.4l0.9,1.7
		l1.7-0.6l1.5-0.3l1.5-1.8l2-1.1l1.7-3.3l0.5-3.4l1.1-2.1l0.7-2l0.7-1.5l0.5-0.9l0.7-0.9l0.7-1.2l0.8-0.2l0.3-0.5l1-0.5l1.1-0.7
		l0.7-0.1l0.6,0l1.6,0.4l0.5,0.4l0.8,0.5l0.2,0.6l0.2-0.1l0,0.9l0.6,0.7l-0.2,1.1l0.4,0.8l-0.2,2l-0.9,1.3l-0.2,0.9l-0.8,1.1
		l-0.1,0.2l-0.1,0l-0.2,0l-0.7,0.8l-0.6,1.2l-0.4,0.2l-0.3,0.3l-0.7,0.5l-0.6,0.4l-0.8,0.5l-0.8,0.7l-0.2,0.2l-0.2,0.1l-0.1,0.5
		l0.1,0.4l2-0.1l2-0.1l1-0.3l0.5-0.6l0.7,0.2l0.4-0.1l0.1-0.3l0.9-0.2l1-0.2l1.4-1.3l1.3-1l0.2-0.3l0.2-0.2l0.3-0.2l1-1.1l0.6-1.1
		l1.3-0.9l0.8-1.3l0.9-0.7l0.7-1l0.5-0.8l0.7-0.6l0.7-0.6l0.7-0.6l0.6-1.4l0.6-1.1l0.8-0.4l0.6-0.2l0.8-1.1l1-1.1l0.9-0.9l0.9-0.4
		l0.5-0.2l-0.1-0.4l2.3,0.5l1.5-0.8l0.1-0.3l1.8,0.4l0.7,0.9l-0.2,0.9l0.4,0.7l0.1,0.6l0.5,0.3l-0.6,2.8l-0.4-0.1l-0.2,0.2l0.1,0
		l0.3,0.3l-1,1.2l-0.4,1.9l-0.2,2.2l0.8,1.6l-0.2,0.1l2.2,0.8l0,0l-0.1,0l-0.3-0.1l0,0.2l0.3,0.1l0.3,0.1l0-0.2l3.5-1.2l1.1-0.3
		l2.2-0.5l1.1-0.4h0.9l1.2-0.3l1-0.5l1.9-0.4l1.6-0.6l1.1-0.6l1.3-0.2l0.6-0.2l0.5-0.4h0.6l1.4-0.9l0.8,0l0.2-0.1l1-0.4l0.6-0.4
		l0.5,0.1l-0.2,0.1l0,0.1l0.1,0.2l0.8-0.5l0.1,0.4l0.4,0.3l0.3-0.3l-0.1-0.3l-0.1-0.2l-0.4-0.1l0.4-0.4l0.3,0.1l0.6,0l0.3-0.4
		l0.2,0.5l0.5,0.3l0.5-0.8l0,0l1.4-0.7l0.4,0h0.3L553,92l0.5-0.6l0,0.1l0.2,0.4l0.4,0.2l0.1-0.1l0.1-0.4l-0.3-0.1l-0.2,0l0.5-0.5
		l0.3-0.2l0.2-0.1l0,0.6l0,0.2l0,0.2l0.7,0l0.6-0.5l0.1,0l0.2-0.1l0.6,0l0,0.3l0,0.1l0.6,0l-0.3,0l0.3,0.7l0.1,0.2V64.6l-0.7,0.3
		l0.7-0.7V8.6H386.5v134.9l1.2-0.8L389,141.2z M469.2,29.5l-0.1-0.1l-0.1-0.3l0.7,0l0.1,0l0.2,0v0l-0.7-0.4l0-0.4l-0.2-0.3l0.2,0
		l0.1-0.1l0.3,0.1l0.3,0l-0.1-0.3l-0.1-0.3l0.3-0.3l-0.2-0.4l0.2,0l0.2,0l0.3-0.1l-0.3-0.7l0.1-0.2l0.4-0.1l0-0.5l0.2-0.5l0.4-0.2
		l-0.1-0.4l-0.2-0.3l0.1-0.4c0.7-0.7,1.2-1.5,1.5-2.3c0.2-0.6,0.4-1.1,0.6-1.7l0.2,0.3l0.5,0l0.1-0.1l-0.2-0.1l0.4-0.4l0-0.5
		l0.1-0.1l-0.1-0.1l0.4-0.2l0.6,0.2l0.2-0.2l0-0.2l-0.3,0l0.3-0.3l0.4-0.3l1.1,0.3l1.1,0.4L479,18l0.8,0.6l0.4,1.7l-0.8,0.7
		l-0.5,0.8l-0.9,0.8l-0.5,0.9l-0.3,0.4l-0.1,0.6l-0.6,0.4l-0.1,0.5l-0.4,0.5l-0.6,0.9l-0.4,0.9l-1.1,1l-0.4,0.9l-0.4,0.2l-0.1,0.5
		l0.2,0l-0.6,0.4l0,0.2l-0.1,0.3v0l-0.3,0l-0.4,0l-0.3,0.2l-0.2,0l-0.2,0l0,0l0.3,0.1l0.2,0.1l0.1,0l0.3,0.3l-0.3-0.2l-0.3-0.1
		l-0.2,0.1l-0.1,0.1l0.4,0.3l-0.2,0.2l-0.1,0l0.1,0l-0.2,0l-0.1,0.1l-1-0.7l-0.1-0.3l0.1-0.2l-0.6-0.3l-0.2-0.1l-0.3,0.1l-0.2,0
		l0.8-0.6l0.5-0.3l0-0.4L469.2,29.5z"/>
	<polygon id="XMLID_193_" class="st0" points="438.6,103.7 438.6,103.2 438.3,103.2 438,103.2 438,103.7 438.3,103.7 	"/>
	<polygon id="XMLID_194_" class="st0" points="435.7,105 435.9,104.6 435.6,104.6 435.4,104.6 435.4,105.1 435.6,105 	"/>
	<polygon id="XMLID_195_" class="st0" points="435.2,102.3 435,101.7 434.9,101.7 434.6,101.7 434.6,102.3 434.9,102.3 	"/>
	<polygon id="XMLID_196_" class="st0" points="436.5,104.3 436.5,104.1 436.2,104.1 435.9,104.1 435.9,104.3 436.2,104.3 	"/>
	<polygon id="XMLID_197_" class="st0" points="490.2,101 490.6,100.4 491.1,100.2 492,99 492.5,98.1 492.8,96.9 492.2,96.1 
		491.1,96.5 490,97.7 489.3,99.4 488.9,100.6 489,101.7 490.1,101.3 	"/>
	<polygon id="XMLID_198_" class="st0" points="357.1,202.3 359.5,202.3 358.3,198.3 	"/>
	<path id="XMLID_199_" class="st0" d="M450.9,200c0.3,0,0.5-0.2,0.7-0.4c0.2-0.2,0.3-0.5,0.3-0.9c0-0.3-0.1-0.6-0.2-0.8
		c-0.1-0.2-0.3-0.3-0.5-0.4c-0.2,0-0.8-0.1-1.7-0.1h-1v2.5h1.2C450.2,200,450.7,200,450.9,200z"/>
	<polygon id="XMLID_200_" class="st0" points="134.8,202.3 137.2,202.3 136,198.3 	"/>
	<path id="XMLID_201_" class="st0" d="M411.7,197.7c-0.2-0.1-0.7-0.1-1.5-0.1h-0.9v3.1h1c0.7,0,1.1,0,1.4-0.1
		c0.2-0.1,0.4-0.3,0.6-0.5c0.2-0.3,0.2-0.5,0.2-0.9c0-0.4-0.1-0.7-0.2-0.9C412.1,197.9,411.9,197.8,411.7,197.7z"/>
	<path id="XMLID_202_" class="st0" d="M167.1,198.2c-0.2-0.3-0.5-0.4-0.9-0.5c-0.2-0.1-0.7-0.1-1.5-0.1H164v7.2h1.3
		c0.6,0,1-0.1,1.3-0.2c0.3-0.1,0.5-0.3,0.6-0.5c0.2-0.2,0.3-0.6,0.4-1c0.1-0.5,0.2-1.1,0.2-1.9c0-0.8-0.1-1.4-0.2-1.9
		C167.5,198.8,167.3,198.4,167.1,198.2z"/>
	<path id="XMLID_203_" class="st0" d="M451.3,202c-0.3-0.1-0.8-0.1-1.5-0.1h-1.5v2.9h1.7c0.7,0,1.2,0,1.4-0.1
		c0.2-0.1,0.4-0.2,0.5-0.5c0.1-0.2,0.2-0.5,0.2-0.8c0-0.4-0.1-0.6-0.2-0.9C451.8,202.2,451.6,202.1,451.3,202z"/>
	<polygon id="XMLID_204_" class="st0" points="521.3,202.3 523.7,202.3 522.5,198.3 	"/>
	<path id="XMLID_205_" class="st0" d="M215.8,200c0.3,0,0.5-0.2,0.7-0.4c0.2-0.2,0.3-0.5,0.3-0.9c0-0.3-0.1-0.6-0.2-0.8
		c-0.1-0.2-0.3-0.3-0.5-0.4c-0.2,0-0.8-0.1-1.7-0.1h-1v2.5h1.2C215.2,200,215.6,200,215.8,200z"/>
	<path id="XMLID_206_" class="st0" d="M216.3,202c-0.3-0.1-0.8-0.1-1.5-0.1h-1.5v2.9h1.7c0.7,0,1.2,0,1.4-0.1
		c0.2-0.1,0.4-0.2,0.5-0.5c0.1-0.2,0.2-0.5,0.2-0.8c0-0.4-0.1-0.6-0.2-0.9C216.7,202.2,216.5,202.1,216.3,202z"/>
	<path id="XMLID_209_" class="st0" d="M9.4,190.5v22.6h548.4v-22.6H9.4z M430.1,192.8h1.9l-1.7,2.2h-1.1L430.1,192.8z M26.9,205.8
		c-0.6,0.6-1.5,1-2.7,1c-2.2,0-3.4-1.2-3.6-3.7l1.7-0.2c0.2,1.4,0.8,2.1,1.9,2.1c0.5,0,1-0.1,1.3-0.4c0.3-0.3,0.5-0.6,0.5-1.1
		c0-0.2-0.1-0.5-0.2-0.6c-0.1-0.2-0.3-0.3-0.5-0.4c-0.2-0.1-0.8-0.3-1.6-0.6c-0.8-0.2-1.3-0.5-1.7-0.8c-0.4-0.3-0.6-0.6-0.8-1.1
		c-0.2-0.4-0.3-0.9-0.3-1.4c0-0.6,0.1-1.1,0.4-1.6c0.3-0.5,0.6-0.8,1.1-1.1c0.5-0.2,1.1-0.4,1.8-0.4c1,0,1.9,0.3,2.4,0.9
		c0.6,0.6,0.9,1.4,0.9,2.4l-1.8,0.1c-0.1-0.6-0.2-1-0.5-1.2c-0.3-0.2-0.6-0.3-1.1-0.3c-0.5,0-0.9,0.1-1.1,0.3
		c-0.3,0.2-0.4,0.4-0.4,0.7c0,0.3,0.1,0.5,0.4,0.7c0.2,0.2,0.8,0.4,1.6,0.7c0.9,0.3,1.6,0.5,1.9,0.8c0.4,0.3,0.7,0.7,0.9,1.1
		c0.2,0.5,0.3,1,0.3,1.7C27.8,204.3,27.5,205.1,26.9,205.8z M41.9,206.6h-1.8v-10.8h1.8V206.6z M60.4,205.8c-0.6,0.6-1.5,1-2.7,1
		c-2.2,0-3.4-1.2-3.6-3.7l1.7-0.2c0.2,1.4,0.8,2.1,1.9,2.1c0.5,0,1-0.1,1.3-0.4c0.3-0.3,0.5-0.6,0.5-1.1c0-0.2-0.1-0.5-0.2-0.6
		c-0.1-0.2-0.3-0.3-0.5-0.4c-0.2-0.1-0.8-0.3-1.6-0.6c-0.8-0.2-1.3-0.5-1.7-0.8c-0.4-0.3-0.6-0.6-0.8-1.1c-0.2-0.4-0.3-0.9-0.3-1.4
		c0-0.6,0.1-1.1,0.4-1.6c0.3-0.5,0.6-0.8,1.1-1.1c0.5-0.2,1.1-0.4,1.7-0.4c1,0,1.9,0.3,2.5,0.9c0.6,0.6,0.9,1.4,0.9,2.4l-1.8,0.1
		c-0.1-0.6-0.3-1-0.5-1.2c-0.3-0.2-0.6-0.3-1.1-0.3c-0.5,0-0.9,0.1-1.1,0.3c-0.3,0.2-0.4,0.4-0.4,0.7c0,0.3,0.1,0.5,0.4,0.7
		c0.2,0.2,0.8,0.4,1.6,0.7c0.9,0.3,1.6,0.5,2,0.8c0.4,0.3,0.7,0.7,0.9,1.1c0.2,0.5,0.3,1,0.3,1.7C61.3,204.3,61,205.1,60.4,205.8z
		 M80.1,197.6h-2.6v9h-1.8v-9H73v-1.8h7V197.6z M98.9,206.6h-6.7v-10.8h6.6v1.8h-4.8v2.4h4.5v1.8h-4.5v2.9h5V206.6z M119.8,206.6
		h-1.7V198l-1.8,8.5h-1.7l-1.8-8.5v8.5h-1.7v-10.8h2.7l1.6,7.4l1.6-7.4h2.7V206.6z M138.5,206.6l-0.8-2.5h-3.6l-0.7,2.5h-1.9
		l3.4-10.8h1.9l3.5,10.8H138.5z M169.3,203.7c-0.2,0.7-0.5,1.2-0.8,1.6c-0.3,0.4-0.7,0.7-1.2,0.9c-0.5,0.2-1.1,0.3-1.8,0.3h-3.4
		v-10.8h3.3c0.8,0,1.5,0.1,1.9,0.3c0.4,0.2,0.8,0.5,1.2,0.9c0.4,0.4,0.6,1,0.8,1.7c0.2,0.7,0.3,1.6,0.3,2.6
		C169.6,202.2,169.5,203,169.3,203.7z M188.8,206.6H182v-10.8h6.6v1.8h-4.8v2.4h4.5v1.8h-4.5v2.9h5V206.6z M218.4,205.4
		c-0.4,0.5-0.8,0.9-1.3,1c-0.4,0.1-1.2,0.1-2.5,0.1h-3v-10.8h3.6c1,0,1.7,0.1,2,0.3c0.4,0.2,0.7,0.5,1,0.9c0.3,0.4,0.4,1,0.4,1.5
		c0,0.5-0.1,1-0.3,1.4c-0.2,0.4-0.5,0.7-0.9,0.9c0.5,0.2,0.9,0.5,1.2,1c0.3,0.5,0.5,1,0.5,1.6C218.9,204.2,218.7,204.9,218.4,205.4z
		 M233.1,206.6h-1.8v-10.8h1.8V206.6z M251.7,205.9c-0.6,0.6-1.4,0.8-2.3,0.8c-1.2,0-2.1-0.4-2.8-1.3c-0.8-1-1.2-2.4-1.2-4.2
		c0-1.8,0.4-3.3,1.2-4.3c0.7-0.9,1.7-1.4,2.9-1.4c1,0,1.8,0.3,2.5,1c0.5,0.5,0.8,1.2,1,2.1l-1.8,0.5c-0.1-0.6-0.3-1-0.7-1.3
		c-0.3-0.3-0.7-0.5-1.2-0.5c-0.7,0-1.2,0.3-1.6,0.8c-0.4,0.6-0.6,1.5-0.6,2.8c0,1.4,0.2,2.3,0.6,2.9c0.4,0.6,0.9,0.9,1.6,0.9
		c0.5,0,0.9-0.2,1.2-0.5c0.3-0.4,0.6-0.9,0.7-1.7l1.7,0.7C252.8,204.4,252.4,205.3,251.7,205.9z M267.2,206.6h-1.8v-10.8h1.8V206.6z
		 M285.9,205.9c-0.6,0.6-1.4,0.8-2.3,0.8c-1.2,0-2.1-0.4-2.8-1.3c-0.8-1-1.2-2.4-1.2-4.2c0-1.8,0.4-3.3,1.2-4.3
		c0.7-0.9,1.7-1.4,2.9-1.4c1,0,1.8,0.3,2.5,1c0.5,0.5,0.8,1.2,1,2.1l-1.8,0.5c-0.1-0.6-0.3-1-0.7-1.3c-0.3-0.3-0.7-0.5-1.2-0.5
		c-0.7,0-1.2,0.3-1.6,0.8c-0.4,0.6-0.6,1.5-0.6,2.8c0,1.4,0.2,2.3,0.6,2.9c0.4,0.6,0.9,0.9,1.6,0.9c0.5,0,0.9-0.2,1.2-0.5
		c0.3-0.4,0.6-0.9,0.7-1.7l1.7,0.7C287,204.4,286.5,205.3,285.9,205.9z M305.9,206.6h-6.2v-10.7h1.8v8.9h4.4V206.6z M324.9,206.6
		h-6.7v-10.8h6.6v1.8h-4.8v2.4h4.5v1.8h-4.5v2.9h5V206.6z M343.7,197.6H341v9h-1.8v-9h-2.6v-1.8h7V197.6z M360.9,206.6l-0.8-2.5
		h-3.6l-0.7,2.5h-1.9l3.5-10.8h1.9l3.5,10.8H360.9z M380.5,205.8c-0.6,0.6-1.5,1-2.7,1c-2.2,0-3.4-1.2-3.6-3.7l1.7-0.2
		c0.2,1.4,0.8,2.1,1.9,2.1c0.5,0,1-0.1,1.3-0.4c0.3-0.3,0.5-0.6,0.5-1.1c0-0.2-0.1-0.5-0.2-0.6c-0.1-0.2-0.3-0.3-0.5-0.4
		c-0.2-0.1-0.8-0.3-1.6-0.6c-0.8-0.2-1.3-0.5-1.7-0.8c-0.3-0.3-0.6-0.6-0.8-1.1c-0.2-0.4-0.3-0.9-0.3-1.4c0-0.6,0.1-1.1,0.4-1.6
		c0.3-0.5,0.6-0.8,1.1-1.1c0.5-0.2,1.1-0.4,1.8-0.4c1,0,1.9,0.3,2.4,0.9c0.6,0.6,0.9,1.4,0.9,2.4l-1.8,0.1c-0.1-0.6-0.3-1-0.5-1.2
		c-0.3-0.2-0.6-0.3-1.1-0.3c-0.5,0-0.9,0.1-1.1,0.3c-0.3,0.2-0.4,0.4-0.4,0.7c0,0.3,0.1,0.5,0.4,0.7c0.2,0.2,0.8,0.4,1.6,0.7
		c0.9,0.3,1.6,0.5,2,0.8c0.4,0.3,0.7,0.7,0.9,1.1c0.2,0.5,0.3,1,0.3,1.7C381.4,204.3,381.1,205.1,380.5,205.8z M413.9,201
		c-0.3,0.5-0.7,0.9-1.1,1.1c-0.4,0.2-1.2,0.3-2.3,0.3h-1.2v4.1h-1.8v-10.8h2.9c1.1,0,1.8,0.1,2.1,0.2c0.5,0.2,1,0.5,1.3,1.1
		c0.4,0.5,0.5,1.3,0.5,2.1C414.4,199.9,414.2,200.5,413.9,201z M433.8,201.4c0,1.4-0.1,2.5-0.2,3.1c-0.2,0.6-0.5,1.2-1,1.6
		c-0.5,0.4-1.3,0.6-2.2,0.6c-0.9,0-1.6-0.2-2.2-0.5c-0.5-0.3-0.9-0.8-1.1-1.4c-0.2-0.6-0.4-1.7-0.4-3.3v-5.8h1.8v5.9
		c0,0.9,0,1.5,0.1,1.8c0.1,0.5,0.3,0.8,0.6,1.1c0.3,0.3,0.7,0.4,1.2,0.4c0.4,0,0.7-0.1,1-0.3c0.3-0.2,0.4-0.4,0.5-0.8
		c0.1-0.3,0.1-1,0.1-2.1v-6h1.8V201.4z M453.4,205.4c-0.4,0.5-0.8,0.9-1.3,1c-0.4,0.1-1.2,0.1-2.5,0.1h-3v-10.8h3.6
		c1,0,1.7,0.1,2,0.3c0.4,0.2,0.7,0.5,1,0.9c0.3,0.4,0.4,1,0.4,1.5c0,0.5-0.1,1-0.3,1.4c-0.2,0.4-0.5,0.7-0.9,0.9
		c0.5,0.2,0.9,0.5,1.2,1c0.3,0.5,0.4,1,0.4,1.6C454,204.2,453.8,204.9,453.4,205.4z M472.7,206.6h-6.2v-10.7h1.8v8.9h4.5V206.6z
		 M486.6,206.6h-1.8v-10.8h1.8V206.6z M505.2,205.9c-0.6,0.6-1.4,0.8-2.3,0.8c-1.2,0-2.1-0.4-2.8-1.3c-0.8-1-1.2-2.4-1.2-4.2
		c0-1.8,0.4-3.3,1.2-4.3c0.7-0.9,1.7-1.4,2.9-1.4c1,0,1.8,0.3,2.5,1c0.5,0.5,0.8,1.2,1,2.1l-1.8,0.5c-0.1-0.6-0.3-1-0.7-1.3
		c-0.3-0.3-0.7-0.5-1.2-0.5c-0.7,0-1.2,0.3-1.6,0.8c-0.4,0.6-0.6,1.5-0.6,2.8c0,1.4,0.2,2.3,0.6,2.9c0.4,0.6,0.9,0.9,1.6,0.9
		c0.5,0,0.9-0.2,1.2-0.5c0.3-0.4,0.6-0.9,0.7-1.7l1.7,0.7C506.3,204.4,505.9,205.3,505.2,205.9z M525.1,206.6l-0.8-2.5h-3.6
		l-0.7,2.5h-1.9l3.4-10.8h1.9l3.5,10.8H525.1z M544.7,205.8c-0.6,0.6-1.5,1-2.7,1c-2.2,0-3.4-1.2-3.6-3.7l1.7-0.2
		c0.2,1.4,0.8,2.1,1.9,2.1c0.5,0,1-0.1,1.3-0.4c0.3-0.3,0.5-0.6,0.5-1.1c0-0.2-0.1-0.5-0.2-0.6c-0.1-0.2-0.3-0.3-0.5-0.4
		c-0.2-0.1-0.8-0.3-1.6-0.6c-0.8-0.2-1.3-0.5-1.7-0.8c-0.4-0.3-0.6-0.6-0.8-1.1c-0.2-0.4-0.3-0.9-0.3-1.4c0-0.6,0.1-1.1,0.4-1.6
		c0.3-0.5,0.6-0.8,1.1-1.1c0.5-0.2,1.1-0.4,1.8-0.4c1,0,1.9,0.3,2.4,0.9c0.6,0.6,0.9,1.4,0.9,2.4l-1.8,0.1c-0.1-0.6-0.2-1-0.5-1.2
		c-0.3-0.2-0.6-0.3-1.1-0.3c-0.5,0-0.9,0.1-1.1,0.3c-0.3,0.2-0.4,0.4-0.4,0.7c0,0.3,0.1,0.5,0.4,0.7c0.2,0.2,0.8,0.4,1.6,0.7
		c0.9,0.3,1.6,0.5,2,0.8c0.4,0.3,0.7,0.7,0.9,1.1c0.2,0.5,0.3,1,0.3,1.7C545.6,204.3,545.3,205.1,544.7,205.8z"/>
</g>
</svg>
